<svg width="80" height="82" viewBox="0 0 80 82" fill="none" xmlns="http://www.w3.org/2000/svg">
<path d="M73 73H7C5.9 73 5 72.1 5 71V62C5 60.9 5.9 60 7 60H73C74.1 60 75 60.9 75 62V71C75 72.1 74.1 73 73 73ZM9 69H71V64H9V69Z" fill="black"/>
<path d="M78 82H2C0.9 82 0 81.1 0 80V71C0 69.9 0.9 69 2 69H78C79.1 69 80 69.9 80 71V80C80 81.1 79.1 82 78 82ZM4 78H76V73H4V78Z" fill="black"/>
<path d="M14 57C12.9 57 12 56.1 12 55V27C12 25.9 12.9 25 14 25C15.1 25 16 25.9 16 27V55C16 56.1 15.1 57 14 57Z" fill="black"/>
<path d="M27 57C25.9 57 25 56.1 25 55V27C25 25.9 25.9 25 27 25C28.1 25 29 25.9 29 27V55C29 56.1 28.1 57 27 57Z" fill="black"/>
<path d="M40 57C38.9 57 38 56.1 38 55V27C38 25.9 38.9 25 40 25C41.1 25 42 25.9 42 27V55C42 56.1 41.1 57 40 57Z" fill="black"/>
<path d="M53 57C51.9 57 51 56.1 51 55V27C51 25.9 51.9 25 53 25C54.1 25 55 25.9 55 27V55C55 56.1 54.1 57 53 57Z" fill="black"/>
<path d="M66 57C64.9 57 64 56.1 64 55V27C64 25.9 64.9 25 66 25C67.1 25 68 25.9 68 27V55C68 56.1 67.1 57 66 57Z" fill="black"/>
<path d="M74 29H6C4.9 29 4 28.1 4 27V22.6C4 21.9 4.4 21.3 5 20.9L39 0.3C39.6 -0.1 40.4 -0.1 41.1 0.3L75.1 20.9C75.7 21.3 76.1 21.9 76.1 22.6V27C76 28.1 75.1 29 74 29ZM8 25H72V23.7L40 4.3L8 23.7V25Z" fill="black"/>
</svg>
